#!OML:ASF E:\VariousWalksJay\Project 1\Capture day 1\Session 1\Actor2.ASF
:FULLY-SPECIFIED
:DEGREES
759
root 9.38747 15.8646 15.2518 122.488 -72.3128 -145.206
lowerback 1.2307 -4.67713 -10.0552
upperback 0.715446 -6.63462 -7.48389
thorax 0.272221 -3.45281 -2.14105
lowerneck -4.86901 -9.15451 -11.1624
upperneck 14.847 -16.5728 21.5584
head 8.17733 -7.82498 7.32453
rclavicle -2.06736e-014 -6.36111e-015
rhumerus -33.6655 9.41279 -92.2451
rradius 128.551
rwrist 2.22779
rhand -27.2875 -2.46697
rfingers 7.12502
rthumb -0.697771 -32.4456
lclavicle -2.06736e-014 -6.36111e-015
lhumerus -14.5878 -28.2148 85.0496
lradius 91.6187
lwrist 20.382
lhand -43.665 -35.4562
lfingers 7.12502
lthumb -16.4987 -6.13767
rfemur -36.4946 -10.0086 15.1071
rtibia 79.9328
rfoot 4.82292 -7.75069
rtoes -5.65262
lfemur 24.9986 17.2097 6.58141
ltibia 39.1653
lfoot -33.3077 15.9071
ltoes -16.7876
760
root 9.36503 15.7875 15.2287 123.593 -72.4824 -145.644
lowerback 0.689205 -4.50692 -9.78086
upperback 0.645004 -6.31858 -7.29607
thorax 0.485177 -3.29543 -2.13601
lowerneck -4.75668 -9.47442 -11.3545
upperneck 13.854 -16.789 21.7205
head 7.90844 -7.9512 7.36738
rclavicle -3.81667e-014 -3.81667e-014
rhumerus -32.6717 9.66195 -93.9588
rradius 127.827
rwrist 3.98779
rhand -33.9233 -1.71475
rfingers 7.12502
rthumb -7.10552 -31.5755
lclavicle -3.81667e-014 -3.81667e-014
lhumerus -17.4918 -29.38 88.4991
lradius 91.3563
lwrist 20.4363
lhand -42.6383 -32.4688
lfingers 7.12502
lthumb -15.51 -3.07091
rfemur -34.2238 -8.53755 14.8091
rtibia 77.0845
rfoot 2.96791 -9.94812
rtoes -6.95423
lfemur 23.8388 18.014 6.87099
ltibia 40.703
lfoot -33.9295 15.2049
ltoes -17.546
761
root 9.34474 15.7073 15.2028 125.236 -72.6832 -146.584
lowerback 0.163237 -4.33 -9.58467
upperback 0.585262 -6.00392 -7.15921
thorax 0.703391 -3.14105 -2.13836
lowerneck -4.68813 -9.77423 -11.4975
upperneck 12.7792 -16.9922 21.9887
head 7.63004 -8.06849 7.43909
rclavicle -4.92986e-014 -1.84472e-013
rhumerus -31.2528 10.3733 -94.8683
rradius 126.976
rwrist 5.23022
rhand -39.568 -1.03834
rfingers 7.12502
rthumb -12.5513 -30.6413
lclavicle -4.92986e-014 -1.84472e-013
lhumerus -19.9062 -30.9468 91.5541
lradius 90.8632
lwrist 20.9751
lhand -40.6078 -28.5842
lfingers 7.12502
lthumb -13.5537 0.954696
rfemur -32.3646 -7.0789 14.536
rtibia 74.6084
rfoot 0.857072 -12.014
rtoes -8.19079
lfemur 22.6443 18.8842 6.97244
ltibia 42.2497
lfoot -34.5506 14.6017
ltoes -18.2287
762
root 9.32724 15.6276 15.1756 127.493 -72.9071 -148.112
lowerback -0.318941 -4.15251 -9.47374
upperback 0.527028 -5.70258 -7.08083
thorax 0.901307 -2.99507 -2.14909
lowerneck -4.64982 -10.0401 -11.6067
upperneck 11.6528 -17.1667 22.3603
head 7.34793 -8.17208 7.54447
rclavicle -1.74931e-014 2.8625e-014
rhumerus -29.4754 11.4828 -94.9539
rradius 126.123
rwrist 6.07442
rhand -43.8892 -0.323685
rfingers 7.12502
rthumb -16.7145 -29.6241
lclavicle -1.74931e-014 2.8625e-014
lhumerus -21.8077 -32.8613 94.2209
lradius 90.2652
lwrist 21.9587
lhand -37.8531 -24.7091
lfingers 7.12502
lthumb -10.8976 4.98815
rfemur -30.9301 -5.71337 14.2508
rtibia 72.5792
rfoot -1.38686 -13.83
rtoes -9.0685
lfemur 21.4595 19.813 6.84776
ltibia 43.7244
lfoot -35.1406 14.1317
ltoes -18.8485
763
root 9.31278 15.5518 15.1483 130.409 -73.1506 -150.297
lowerback -0.722001 -3.97494 -9.45325
upperback 0.469628 -5.41914 -7.07015
thorax 1.05768 -2.8597 -2.1725
lowerneck -4.63942 -10.266 -11.6994
upperneck 10.5112 -17.3025 22.8136
head 7.07079 -8.25851 7.68075
rclavicle 1.59028e-015 6.99722e-014
rhumerus -27.3842 12.8589 -94.2317
rradius 125.327
rwrist 6.73121
rhand -46.8286 0.454047
rfingers 7.12502
rthumb -19.5425 -28.5838
lclavicle 1.59028e-015 6.99722e-014
lhumerus -23.1567 -35.0449 96.4831
lradius 89.6922
lwrist 23.2041
lhand -34.5892 -21.2645
lfingers 7.12502
lthumb -7.74827 8.57351
rfemur -29.9058 -4.54183 13.9237
rtibia 71.0488
rfoot -3.5442 -15.2561
rtoes -10.0349
lfemur 20.3322 20.7754 6.46385
ltibia 45.0551
lfoot -35.6777 13.7945
ltoes -19.3769
764
root 9.3009 15.4841 15.1213 134.003 -73.3689 -153.176
lowerback -1.03154 -3.80504 -9.51615
upperback 0.410314 -5.16409 -7.1148
thorax 1.16216 -2.7396 -2.19946
lowerneck -4.65957 -10.4373 -11.7823
upperneck 9.39196 -17.3714 23.2998
head 6.80054 -8.3141 7.83647
rclavicle 3.97569e-014 -3.49861e-014
rhumerus -24.9952 14.3763 -92.7518
rradius 124.586
rwrist 7.40789
rhand -48.5367 1.14611
rfingers 7.12502
rthumb -21.184 -27.7164
lclavicle 3.97569e-014 -3.49861e-014
lhumerus -23.9159 -37.3726 98.2939
lradius 89.2741
lwrist 24.4358
lhand -30.9547 -18.3598
lfingers 7.12502
lthumb -4.23938 11.5778
rfemur -29.2754 -3.60546 13.5594
rtibia 70.0375
rfoot -5.55104 -16.2166
rtoes -10.7675
lfemur 19.3079 21.7656 5.83764
ltibia 46.1826
lfoot -36.1351 13.5877
ltoes -19.834
765
root 9.29108 15.4259 15.0944 138.213 -73.497 -156.69
lowerback -1.24928 -3.65222 -9.63409
upperback 0.351072 -4.94787 -7.19683
thorax 1.21712 -2.63941 -2.22831
lowerneck -4.70845 -10.545 -11.839
upperneck 8.31085 -17.3497 23.7591
head 6.52844 -8.32698 7.99234
rclavicle -1.06549e-013 -6.36111e-015
rhumerus -22.2988 15.9225 -90.607
rradius 123.849
rwrist 8.27229
rhand -49.3776 1.49096
rfingers 7.12502
rthumb -21.9916 -27.2788
lclavicle -1.06549e-013 -6.36111e-015
lhumerus -24.037 -39.7197 99.5791
lradius 89.1209
lwrist 25.3862
lhand -27.0697 -16.0272
lfingers 7.12502
lthumb -0.487427 13.9519
rfemur -29.017 -2.94966 13.2083
rtibia 69.5433
rfoot -7.29605 -16.6981
rtoes -11.59
lfemur 18.4135 22.7813 5.01904
ltibia 47.0713
lfoot -36.4945 13.4879
ltoes -20.2225
766
root 9.28253 15.3789 15.0669 142.931 -73.4761 -160.741
lowerback -1.37713 -3.5258 -9.78135
upperback 0.294296 -4.78193 -7.30441
thorax 1.22536 -2.56437 -2.26228
lowerneck -4.80134 -10.5908 -11.8602
upperneck 7.29573 -17.2371 24.1491
head 6.25919 -8.29453 8.13153
rclavicle 5.00937e-014 6.04305e-014
rhumerus -19.2564 17.3819 -87.9009
rradius 123.039
rwrist 9.32226
rhand -49.7446 1.44173
rfingers 7.12502
rthumb -22.344 -27.2862
lclavicle 5.00937e-014 6.04305e-014
lhumerus -23.4702 -41.9771 100.252
lradius 89.3057
lwrist 25.8597
lhand -23.1083 -14.208
lfingers 7.12502
lthumb 3.33854 15.7456
rfemur -29.1037 -2.58403 12.905
rtibia 69.5392
rfoot -8.76857 -16.7394
rtoes -12.4962
lfemur 17.6668 23.8157 4.04387
ltibia 47.7003
lfoot -36.7487 13.4765
ltoes -20.524
767
root 9.27459 15.3432 15.0384 148.01 -73.2623 -165.178
lowerback -1.42547 -3.42812 -9.95061
upperback 0.243346 -4.66768 -7.43069
thorax 1.19631 -2.51525 -2.30001
lowerneck -4.92364 -10.5844 -11.8385
upperneck 6.34104 -17.0496 24.4652
head 5.98952 -8.22521 8.24958
rclavicle 1.03368e-014 6.99722e-014
rhumerus -15.8563 18.6601 -84.7592
rradius 122.094
rwrist 10.4939
rhand -50.0284 1.13781
rfingers 7.12502
rthumb -22.6164 -27.5572
lclavicle 1.03368e-014 6.99722e-014
lhumerus -22.1847 -44.0725 100.243
lradius 89.8651
lwrist 25.7733
lhand -19.3559 -12.9396
lfingers 7.12502
lthumb 6.9616 16.926
rfemur -29.5114 -2.50664 12.6758
rtibia 69.9815
rfoot -9.96399 -16.4378
rtoes -13.541
lfemur 17.0656 24.8622 2.92921
ltibia 48.0664
lfoot -36.8901 13.5755
ltoes -20.7874
